# xmcd
#
# Track frame offsets: 
#        150
#        15306
#        32988
#        50829
#        64973
#        85901
#        108760
#        128465
#        144652
#        164741
#        180850
#        198045
#
# Disc length: 2739 seconds
#
# Revision: 1
# Processed by: cddbd v1.5.2PL0 Copyright (c) Steve Scherf et al.
# Submitted via: ExactAudioCopy v1.0b3
#
DISCID=9a0ab10c
DTITLE=Bill Johnson - Still Blue
DYEAR=2010
DGENRE=Blues
TTITLE0=Fishing With You Boots On
TTITLE1=Habitual Survivor
TTITLE2=Worked To Death
TTITLE3=Experience
TTITLE4=Another One
TTITLE5=Half The Man
TTITLE6=Old Les Paul Guitar
TTITLE7=300 Pounds Of Heavenly Joy
TTITLE8=Red Hot
TTITLE9=King Bee
TTITLE10=T-Bone Blues
TTITLE11=Remote Control Man
EXTD=
EXTT0=
EXTT1=
EXTT2=
EXTT3=
EXTT4=
EXTT5=
EXTT6=
EXTT7=
EXTT8=
EXTT9=
EXTT10=
EXTT11=
PLAYORDER=
